<?xml version="1.0" encoding="UTF-8"?>
<svg version="1.1" viewBox="0 0 1600 1600" width="1280" height="1280" xmlns="http://www.w3.org/2000/svg">
<path transform="translate(798 235)" d="m0 0c1.14-6.75e-4 2.28-0.00135 3.45-0.00204 21.1 0.0197 42 0.938 62.9 3.25 0.751 0.0825 1.5 0.165 2.28 0.25 65.6 7.31 131 26.3 190 57.6 3.55 1.9 7.16 3.67 10.8 5.42 39.6 19.7 77.5 47.2 110 77.4 2.17 2.01 4.37 3.96 6.62 5.88 5.25 4.55 10.1 9.56 14.9 14.5 2.83 2.84 5.67 5.67 8.52 8.49 6.38 6.33 12.7 12.6 18.5 19.5 0.896 1.03 1.79 2.07 2.69 3.1 6.54 7.53 12.9 15.2 18.9 23.1 0.921 1.2 1.84 2.39 2.77 3.59 22.8 29.4 42.4 61.6 58.6 95.1 0.718 1.48 1.44 2.95 2.17 4.42 7.05 14.3 13.1 28.8 18.9 43.7 0.348 0.892 0.695 1.78 1.05 2.7 24.3 62.7 35.2 131 35.1 198-2.72e-4 1.06-5.44e-4 2.11-8.24e-4 3.2-0.0196 16.6-0.501 32.9-2.19 49.4-0.145 1.54-0.145 1.54-0.292 3.1-2.82 29.7-8.29 59.1-15.7 87.9-0.291 1.13-0.581 2.27-0.881 3.44-12.5 47.7-32.2 94.1-57.1 137-0.521 0.891-1.04 1.78-1.58 2.7-14.1 24-29.9 46.7-47.4 68.3-0.736 0.915-0.736 0.915-1.49 1.85-7.49 9.3-15.2 18.2-23.5 26.9-2.83 2.98-5.45 6.09-8.06 9.27-2.19 2.37-2.19 2.37-4 4h-2c-0.66 1.32-1.32 2.64-2 4h-2c-0.33 0.99-0.66 1.98-1 3-1.5 1.47-1.5 1.47-3.44 3.06-3.3 2.79-6.36 5.71-9.38 8.81-4.28 4.34-8.8 8.19-13.6 12-2.33 1.89-4.55 3.85-6.75 5.88-5.5 4.94-11.4 9.35-17.3 13.8-1 0.782-1 0.782-2.03 1.58-2.54 1.86-2.54 1.86-5.56 3.66-6.36 3.99-6.36 3.99-10.1 10.3-0.428 3.77-0.485 7.45-0.403 11.2-0.013 1.44-0.0311 2.87-0.054 4.31-0.0459 3.88-0.0169 7.75 0.0289 11.6 0.038 4.08 0.0155 8.15 0.00219 12.2-0.0127 6.85 0.0237 13.7 0.0893 20.6 0.0748 7.89 0.0715 15.8 0.0259 23.7-0.0421 7.62-0.0272 15.2 0.0126 22.9 0.0158 3.23 0.0121 6.45-0.00805 9.68-0.335 23.8-0.335 23.8 11.4 43.7 1.54 2.17 2.94 4.39 4.36 6.65 0.712 1.09 1.42 2.18 2.16 3.31 0.363 0.556 0.726 1.11 1.1 1.69 8.49 13 17.1 26 25.7 38.9 4.98 7.45 9.89 14.9 14.7 22.5 2.19 3.41 4.42 6.78 6.68 10.1 4.59 6.85 9.09 13.8 13.6 20.7 2.87 4.42 5.75 8.82 8.68 13.2 3.43 5.11 6.78 10.3 10.1 15.4 4.69 7.25 9.45 14.4 14.2 21.6 7.66 11.5 7.66 11.5 11 16.6 0.523 0.808 1.05 1.62 1.59 2.45 1.04 1.86 1.04 1.86 1.04 3.86h-166v-46c7.38-0.145 14.8-0.288 22.1-0.427 2.5-0.0476 4.99-0.0961 7.49-0.146 16.8-0.332 33.6-0.5 50.4-0.427-6.19-10.1-12.7-20.1-19.2-29.9-0.633-0.947-0.633-0.947-1.28-1.91-3.15-4.72-6.31-9.43-9.47-14.1-3.41-5.08-6.81-10.2-10.2-15.3-1.37-2.04-2.73-4.08-4.1-6.12-4.92-7.35-9.71-14.8-14.4-22.3-2.66-4.3-5.47-8.46-8.42-12.6-3.06-4.4-5.94-8.92-8.83-13.4-0.441-0.687-0.882-1.37-1.34-2.08-0.416-0.662-0.832-1.32-1.26-2-1.43-2.24-1.43-2.24-3.04-4.18-4.97-6.43-5.29-11.8-5.17-19.7-0.00568-1.25-0.0114-2.51-0.0172-3.8-0.015-3.46 0.00711-6.92 0.0354-10.4 0.024-3.74 0.013-7.48 0.00616-11.2-0.00731-6.48 0.00669-13 0.0347-19.4 0.0401-9.39 0.0423-18.8 0.0343-28.2-0.0123-15.3-0.0016-30.5 0.0272-45.8 0.00171-0.912 0.00343-1.82 0.00519-2.76 0.00875-4.62 0.0177-9.24 0.0268-13.9 0.018-9.23 0.0338-18.5 0.0481-27.7 0.00142-0.909 0.00283-1.82 0.00429-2.75 0.023-15.2 0.0262-30.4 0.0163-45.6-0.0051-9.36 0.00797-18.7 0.0449-28.1 0.0243-6.42 0.0309-12.8 0.0239-19.3-0.00336-3.7 0.00134-7.39 0.0284-11.1 0.273-20.8 0.273-20.8-5.59-40.5-0.572-1.58-1.13-3.15-1.67-4.74-0.501-1.38-1-2.76-1.51-4.13-0.285-0.784-0.571-1.57-0.865-2.38-0.941-2.58-1.89-5.17-2.83-7.75-0.683-1.87-1.37-3.75-2.05-5.62-1.51-4.14-3.02-8.28-4.54-12.4-2.29-6.28-4.59-12.6-6.87-18.9-2.03-5.57-4.06-11.1-6.09-16.7-0.992-2.72-1.98-5.44-2.97-8.16-1.42-3.88-2.83-7.77-4.25-11.6-0.227-0.623-0.455-1.25-0.689-1.89-3.5-9.57-7.05-19.1-10.7-28.7-2.49-6.6-4.84-13.2-7.12-19.9-2.33-6.77-4.73-13.5-7.38-20.1-2.52-6.36-4.84-12.8-7.06-19.2-3.47-10.1-7.11-20.1-10.8-30.1-0.291-0.787-0.582-1.57-0.882-2.39-1.24-3.34-2.47-6.68-3.71-10-3.72-10.1-7.42-20.1-11.1-30.2-5.2-14.2-10.4-28.4-15.7-42.5-2.91-7.83-5.74-15.7-8.49-23.6-1.97-5.57-4.01-11.1-6.05-16.7-1.22-3.33-2.45-6.66-3.67-10-0.252-0.688-0.505-1.38-0.765-2.08-2.61-7.12-5.22-14.2-7.82-21.4-0.228-0.625-0.457-1.25-0.692-1.9-1.41-3.86-2.82-7.72-4.23-11.6-0.744-2.04-1.49-4.08-2.23-6.12-6.26-17.1-12.5-34.3-18.7-51.4-0.315-0.868-0.631-1.74-0.956-2.63-3.24-8.91-6.48-17.8-9.7-26.7-9.14-25.3-9.14-25.3-18.5-50.5-0.671-1.8-1.34-3.59-2-5.39-3.17-8.39-6.17-15.6-14.7-19.7-6.31-2.11-14.1-2.11-20.2 0.773-11.3 6.8-16.9 16.8-20.6 29.3-6.01 28.1-0.4 56 4.55 83.8 1.7 9.55 3.31 19.1 4.93 28.7 0.628 3.71 1.26 7.42 1.89 11.1 0.159 0.937 0.318 1.87 0.481 2.84 1.79 10.6 3.6 21.1 5.41 31.7 0.161 0.943 0.323 1.89 0.489 2.86 3.19 18.6 6.39 37.3 9.6 55.9 2.51 14.6 5.01 29.2 7.46 43.7 0.119 0.708 0.239 1.42 0.362 2.14 0.98 5.81 1.96 11.6 2.94 17.4 5.06 30 10.2 60.1 15.4 90.1 0.472 2.73 0.944 5.46 1.42 8.19 0.576 3.33 1.15 6.66 1.73 9.99 0.132 0.765 0.264 1.53 0.4 2.32 0.259 1.5 0.52 2.99 0.782 4.49 0.679 3.89 1.31 7.79 1.87 11.7 0.123 0.822 0.247 1.64 0.374 2.49 0.234 1.57 0.456 3.15 0.665 4.72 0.489 3.22 0.918 5.4 3.02 7.94 2.05 1.4 3.92 2.18 6.27 2.96 1.55 0.663 3.09 1.33 4.63 2.01 0.744 0.309 1.49 0.617 2.25 0.935 4.66 2.11 8.32 5.5 12 8.93 0.828 0.736 1.66 1.47 2.51 2.23 21.7 20.3 25.8 47 29.7 75.1 0.308 2.22 0.616 4.44 0.925 6.67 0.833 6.01 1.66 12 2.49 18 0.871 6.33 1.75 12.7 2.62 19 1.1 7.98 2.21 16 3.31 24 2.44 17.7 4.9 35.4 7.36 53.2 1.28 9.18 2.55 18.4 3.82 27.5 0.947 6.82 1.89 13.6 2.84 20.5 0.895 6.43 1.79 12.9 2.68 19.3 0.327 2.36 0.655 4.72 0.985 7.08 0.452 3.24 0.9 6.48 1.35 9.72 0.13 0.927 0.261 1.85 0.395 2.81 0.912 6.66 1.52 13.3 2.03 20-5.31 1.66-10.5 2.6-16 3.29-0.834 0.108-1.67 0.216-2.53 0.328-2.64 0.341-5.28 0.675-7.92 1.01-1.8 0.231-3.6 0.463-5.4 0.695-4.39 0.566-8.78 1.12-13.2 1.68-1.71-6.3-2.75-12.6-3.63-19-0.15-1.09-0.301-2.17-0.456-3.29-0.5-3.62-0.995-7.24-1.49-10.9-0.357-2.59-0.714-5.18-1.07-7.77-0.766-5.55-1.53-11.1-2.29-16.7-1.1-8-2.2-16-3.3-24-3.49-25.2-6.96-50.5-10.4-75.7-1.57-11.4-3.14-22.8-4.72-34.3-1.04-7.52-2.07-15-3.09-22.6-0.637-4.66-1.28-9.32-1.92-14-0.295-2.14-0.588-4.29-0.878-6.43-0.396-2.92-0.801-5.85-1.21-8.77-0.166-1.25-0.166-1.25-0.335-2.53-1.91-13.4-6.24-24.6-16.9-33.4-8.75-6.46-18.4-8.57-29.2-7.34-8.67 1.84-15.6 5.84-20.6 13.2-10.2 17.3-9.95 35.1-10 54.6-0.0202 3.53-0.057 7.06-0.0909 10.6-0.0778 8.5-0.127 17-0.17 25.5-0.0123 2.41-0.0252 4.81-0.0383 7.22-0.0815 15-0.152 30-0.194 45-0.00981 3.46-0.0197 6.93-0.0298 10.4-0.0025 0.861-5e-3 1.72-0.00758 2.61-0.0422 13.9-0.15 27.8-0.284 41.8-0.137 14.3-0.213 28.7-0.231 43-0.0114 8.03-0.0487 16.1-0.156 24.1-0.0912 6.85-0.126 13.7-0.0912 20.5 0.016 3.48 0.00815 6.96-0.0731 10.4-0.407 20.8 4.48 33.3 16.1 50 2.37 3.44 4.49 6.97 6.61 10.6 1.27 2.08 2.54 4.16 3.81 6.24 1.43 2.35 2.86 4.69 4.29 7.04 0.35 0.575 0.7 1.15 1.06 1.74 3.56 5.85 7.08 11.7 10.6 17.6 5.33 8.89 10.7 17.8 16.1 26.6 0.358 0.59 0.717 1.18 1.09 1.79 3.67 6.03 7.34 12.1 11 18.1 1.16 1.89 2.31 3.79 3.46 5.68 0.561 0.919 1.12 1.84 1.7 2.79 3.69 6.06 7.34 12.1 11 18.2 2.49 4.16 4.99 8.32 7.49 12.5 1.09 1.82 2.18 3.63 3.27 5.45 1.36 2.28 2.74 4.55 4.12 6.82 0.386 0.65 0.772 1.3 1.17 1.97 2.05 3.33 3.5 5.17 7.14 6.59 2.19 0.289 2.19 0.289 4.54 0.234 0.904 0.0013 1.81 0.00261 2.74 0.00395 1.48-0.0131 1.48-0.0131 2.98-0.0266 1.04-0.00131 2.09-0.00263 3.16-0.00398 3.45-0.00649 6.89-0.0269 10.3-0.047 2.39-0.00627 4.78-0.0115 7.17-0.0158 6.29-0.0133 12.6-0.0378 18.9-0.0654 10.1-0.0431 20.2-0.0728 30.3-0.096 3.53-0.0103 7.07-0.0273 10.6-0.045 2.15-0.00682 4.3-0.0134 6.45-0.0198 0.991-0.00674 1.98-0.0135 3-0.0204 1.34-0.00227 1.34-0.00227 2.71-0.00459 0.783-0.00352 1.57-0.00704 2.37-0.0107 1.78 0.117 1.78 0.117 2.78 1.12 0.093 1.44 0.117 2.89 0.114 4.34-7.55e-5 0.921-1.51e-4 1.84-2.29e-4 2.79-0.00516 1-0.0103 2-0.0156 3.03-0.00141 1.02-0.00283 2.04-0.00429 3.09-0.00562 3.27-0.0182 6.54-0.0309 9.81-0.00501 2.21-0.00958 4.42-0.0137 6.63-0.0111 5.43-0.0278 10.9-0.0488 16.3-17.7 0.445-35.3 0.779-53 0.984-8.2 0.0978-16.4 0.231-24.6 0.449-7.15 0.19-14.3 0.312-21.5 0.354-3.79 0.0247-7.56 0.0821-11.3 0.221-22.9 0.81-22.9 0.81-29-3.81-3.94-4.38-6.34-9.25-8.52-14.7-1.83-4.24-4.32-8.06-6.77-12-0.999-1.67-2-3.34-2.99-5.02-3.84-6.43-7.74-12.8-11.6-19.2-6.11-10.1-12.2-20.1-18.2-30.2-4.12-6.88-8.28-13.7-12.5-20.6-7.4-12.1-14.7-24.3-22-36.5-2.1-3.5-4.19-7-6.29-10.5-1.32-2.2-2.64-4.41-3.96-6.62-0.593-0.99-1.19-1.98-1.8-3-0.522-0.873-1.04-1.75-1.58-2.64-1.08-1.77-2.21-3.51-3.37-5.24h-2c-1.44 1.94-1.44 1.94-2.88 4.48-0.583 0.984-1.17 1.97-1.77 2.98-0.633 1.08-1.27 2.17-1.92 3.28-1.01 1.71-2.02 3.42-3.03 5.13-0.709 1.2-1.42 2.4-2.13 3.59-3.58 6.05-7.22 12.1-10.9 18.1-5.16 8.47-10.3 17-15.4 25.5-4.7 7.85-9.44 15.7-14.2 23.5-0.537 0.884-0.537 0.884-1.08 1.78-2.95 4.85-5.89 9.7-8.84 14.5-2.21 3.63-4.41 7.26-6.62 10.9-0.721 1.19-1.44 2.37-2.16 3.56-3.95 6.5-7.88 13-11.8 19.5-0.951 1.59-1.91 3.18-2.9 4.74-2.53 4.06-4.72 7.98-6.43 12.5-2.38 5.61-5.01 10.3-10 14-9.81 3.37-20.9 2.45-31.2 2.21-4.31-0.0825-8.62-0.0543-12.9-0.0399-7.46 0.00994-14.9-0.0494-22.4-0.157-10.8-0.155-21.6-0.204-32.3-0.228-17.5-0.0415-35-0.168-52.5-0.348-17-0.175-34-0.309-51-0.39-1.57-0.00749-1.57-0.00749-3.18-0.0151-5.26-0.0248-10.5-0.0488-15.8-0.0724-43.6-0.197-87.2-0.531-131-0.956 1.11-1.91 2.22-3.83 3.33-5.74 0.619-1.07 1.24-2.13 1.88-3.23 2.2-3.72 4.52-7.32 6.94-10.9 0.682-1.02 0.682-1.02 1.38-2.06 1.43-2.13 2.86-4.26 4.29-6.39 0.944-1.41 1.89-2.82 2.83-4.22 1.87-2.79 3.74-5.58 5.61-8.37 6.81-10.2 13.6-20.3 20.2-30.6 4.13-6.36 8.28-12.7 12.5-19 4.05-6.05 8.03-12.1 12-18.2 5.49-8.43 11-16.8 16.6-25.2 6.41-9.59 12.8-19.2 19.1-28.8 0.899-1.37 1.8-2.73 2.7-4.1 1.27-1.93 2.54-3.86 3.81-5.79 1.08-1.65 1.08-1.65 2.19-3.34 0.381-0.607 0.763-1.21 1.16-1.84 1.07-1.65 2.2-3.26 3.36-4.85 5.82-8.46 7.17-15 6.94-25.4-0.00226-1.46-9.78e-4 -2.92 0.00354-4.38 0.00227-3.92-0.0444-7.84-0.101-11.8-0.0504-4.11-0.0547-8.23-0.0642-12.3-0.0248-7.77-0.0903-15.5-0.171-23.3-0.0898-8.85-0.133-17.7-0.174-26.6-0.0834-18.2-0.224-36.4-0.403-54.6-0.608-0.293-1.22-0.587-1.84-0.889-5.12-2.64-9.6-6.6-14.2-10.1-0.561-0.43-1.12-0.86-1.7-1.3-12.1-9.32-23.7-19.2-34.9-29.6-2.76-2.57-5.54-5.1-8.42-7.53-2.82-2.4-5.42-4.91-8-7.56-0.598-0.557-1.2-1.11-1.81-1.69-1.19-1.31-1.19-1.31-1.19-3.31-0.99-0.33-1.98-0.66-3-1-1.47-1.5-1.47-1.5-3.06-3.44-2.84-3.35-5.81-6.48-8.94-9.56-4.22-4.18-8.16-8.47-12-13l-2.42-2.79c-7.58-8.78-14.6-17.9-21.6-27.2-0.458-0.605-0.917-1.21-1.39-1.83-12.6-16.6-24.2-34.1-34.6-52.2-0.335-0.574-0.669-1.15-1.01-1.74-39.3-67.5-63.7-142-73-219-0.152-1.19-0.305-2.38-0.462-3.61-5.15-41.4-4.63-85 0.462-126 0.117-1.02 0.235-2.04 0.356-3.1 0.731-6.33 1.63-12.6 2.64-18.9l0.491-3.09c9.1-56.4 25.9-112 52.5-163 0.338-0.644 0.675-1.29 1.02-1.95 2.3-4.36 4.63-8.71 6.98-13 0.501-0.931 1-1.86 1.52-2.82 0.962-1.77 1.93-3.55 2.91-5.31 1.1-2 2.18-4.02 3.24-6.05 10.8-20.2 24.3-39.7 38.3-57.8 0.457-0.591 0.913-1.18 1.38-1.79 2.77-3.57 5.56-7.11 8.37-10.6 1.14-1.43 2.27-2.87 3.39-4.31 4.06-5.15 8.31-10.1 12.7-14.9 2.77-3.06 5.45-6.19 8.12-9.34 4.12 2.12 6.95 4.85 10.1 8.13 1.75 1.75 3.54 3.38 5.42 4.99 6.31 5.44 12.3 11.2 18.4 16.9-1.68 4.08-4.55 7.11-7.44 10.4-5.65 6.49-11 13.1-16.3 19.9-1.23 1.59-2.47 3.17-3.72 4.74-16.9 21.6-31.6 44.7-44.6 68.9-0.527 0.976-1.05 1.95-1.6 2.96-9.12 17-17.2 34.2-24.4 52-0.406 1-0.811 2-1.23 3.03-14.4 36-23.6 73.7-29.8 112l-0.468 2.9c-1 6.35-1.83 12.7-2.53 19.1-0.104 0.928-0.209 1.86-0.316 2.81-3.99 37.6-3.15 76.6 1.32 114l0.422 3.59c6.88 56.2 23.5 113 49.7 164 1.21 2.36 2.35 4.76 3.5 7.15 10.9 22.4 24 43.4 38.4 63.6 0.637 0.896 1.27 1.79 1.93 2.72 6.5 9.09 13.2 17.9 20.5 26.3 3.25 3.76 6.36 7.62 9.46 11.5 2.1 2.55 2.1 2.55 4.83 5.12 2.24 2.31 2.24 2.31 2.24 4.31h2c1.28 1.3 1.28 1.3 2.83 3.19 4.79 5.62 9.99 10.8 15.2 16 1.71 1.71 3.4 3.42 5.1 5.14 5.91 5.94 11.9 11.5 18.5 16.7 3.04 2.42 5.94 4.99 8.83 7.59 1.54 1.4 1.54 1.4 3.56 2.31-0.0566-1.69-0.0566-1.69-0.114-3.41-3.29-101-3.29-101 14.9-136 3.51-6.8 5.97-14 8.52-21.2 0.965-2.7 1.97-5.39 2.98-8.08 2.64-7.04 5.12-14.1 7.58-21.2 3.74-10.8 7.64-21.6 11.6-32.3 1.17-3.16 2.33-6.32 3.5-9.48 1.2-3.26 2.4-6.53 3.61-9.79 3.71-10.1 7.4-20.1 11.1-30.2 0.303-0.829 0.606-1.66 0.919-2.51 4.75-13 9.48-26 14.2-39 5.86-16.1 11.7-32.3 17.6-48.4 0.398-1.09 0.796-2.18 1.21-3.3 4.33-11.9 8.67-23.7 13-35.6 0.375-1.02 0.749-2.04 1.14-3.09 0.752-2.04 1.5-4.09 2.26-6.13 0.371-1.01 0.741-2.02 1.12-3.05 0.371-1.01 0.742-2.02 1.12-3.05 5.47-14.9 10.9-29.7 16.3-44.6 5.74-15.9 11.5-31.8 17.4-47.7 0.37-1.01 0.739-2.01 1.12-3.05 0.556-1.51 0.556-1.51 1.12-3.05 0.754-2.05 1.51-4.1 2.26-6.15 0.376-1.02 0.751-2.04 1.14-3.09 4.45-12.1 8.87-24.2 13.3-36.3 0.401-1.1 0.802-2.19 1.21-3.32 4.74-13 9.45-25.9 14.1-38.9 4.12-11.4 8.24-22.9 12.5-34.3 0.495-1.34 0.988-2.68 1.48-4.03 8.47-23.2 19.9-41.9 42.9-52.7 17.8-7 36.8-6.34 54.6 0.469 13.4 5.98 23.2 15.2 33.4 25.5 0.346-0.828 0.346-0.828 0.699-1.67 7.4-13.2 23.5-21.6 37.3-26.3 18.5-5.24 37.9-3.5 55 5.6 24 14.6 31.8 38.1 40.8 63.3 0.835 2.31 1.67 4.62 2.51 6.92 1.29 3.56 2.58 7.12 3.87 10.7 3.88 10.7 7.82 21.4 11.8 32.1 6.45 17.5 12.8 35 19.1 52.6 5.71 15.9 11.5 31.8 17.4 47.7 6.06 16.3 12.1 32.7 18.1 49.1 0.597 1.64 0.597 1.64 1.21 3.3 5.65 15.5 11.3 31 16.9 46.4 10.2 28.1 20.4 56.2 30.9 84.3 0.36 0.965 0.719 1.93 1.09 2.92 1.69 4.53 3.38 9.06 5.08 13.6 3.32 8.86 6.53 17.8 9.64 26.7 3.85 11.1 7.87 22 11.9 33 0.426 1.17 0.852 2.34 1.29 3.55 6.83 18.8 13.7 37.5 20.6 56.3 5.63 15.2 11.3 30.5 16.7 45.8 0.436 1.23 0.872 2.45 1.32 3.72 4.06 11.5 4.06 11.5 4.05 16.6 0.00137 0.805 0.00275 1.61 0.00417 2.44-0.0036 0.874-0.00719 1.75-0.0109 2.65 1.46e-4 0.927 2.92e-4 1.85 4.43e-4 2.81-6.96e-4 3.06-0.00848 6.12-0.0163 9.19-0.00187 2.12-0.00329 4.25-0.00429 6.37-0.00382 5.59-0.0136 11.2-0.0247 16.8-0.0102 5.7-0.0148 11.4-0.0198 17.1-0.0107 11.2-0.0278 22.4-0.0488 33.6 1.6-1.27 3.21-2.55 4.81-3.83 0.892-0.711 1.78-1.42 2.7-2.15 3.64-2.95 7.04-6.12 10.5-9.33 2.03-1.69 2.03-1.69 4.03-1.69v-2c1.34-1.32 1.34-1.32 3.28-2.91 5.18-4.41 9.97-9.19 14.8-14 1.51-1.52 3.03-3.03 4.55-4.55 5.34-5.34 10.5-10.8 15.4-16.5 0.95-1.09 1.9-2.19 2.85-3.28 56.5-65.4 95.9-143 126-383-1.84-23.8-5.78-47.4-10.8-70.7-0.185-0.88-0.37-1.76-0.561-2.67-7.7-36.1-20.3-72.1-36.4-105-0.484-1-0.967-2-1.47-3.03-7.82-16.1-16.1-31.7-25.5-47-0.567-0.92-1.13-1.84-1.72-2.79-10.9-17.7-22.8-34.5-35.9-50.6-1.26-1.54-2.5-3.09-3.75-4.64-4.69-5.82-9.6-11.4-14.7-16.8-1.87-2.21-1.87-2.21-1.87-4.21h-2c-1.32-1.34-1.32-1.34-2.91-3.28-4.41-5.18-9.19-9.97-14-14.8-1.52-1.51-3.03-3.03-4.55-4.55-5.34-5.34-10.8-10.5-16.5-15.4-1.16-1.02-2.31-2.04-3.46-3.07-9.18-8.1-18.7-15.6-28.5-22.9-0.785-0.59-1.57-1.18-2.38-1.79-9.97-7.49-20-14.7-30.6-21.2-0.743-0.456-1.49-0.912-2.25-1.38-16.2-9.89-32.6-19.3-49.6-27.6-2.25-1.1-4.48-2.22-6.72-3.34-81.8-40.6-177-55.2-284-45.7-0.666 0.0825-1.33 0.165-2.02 0.25-88.5 11.2-174 45.9-253 106l-1.87 1.49c-9.54 7.64-18.9 15.5-28.1 23.5-1.94-0.812-1.94-0.812-4-2-0.33-0.99-0.66-1.98-1-3-0.99-0.33-1.98-0.66-3-1-1.44-1.43-1.44-1.43-3-3.31-2.64-3.12-5.34-6.15-8.12-9.14-4.63-4.97-8.94-10-12.9-15.6 8.4-8.03 17-15.5 26.2-22.6 2.5-1.94 4.95-3.93 7.4-5.92 18.6-15.1 38.8-28.2 59.4-40.5 0.77-0.458 1.54-0.915 2.33-1.39 27.1-16 55.2-29.4 84.7-40.6 1.17-0.443 2.34-0.887 3.54-1.34 49.2-18.5 101-30 153-33.7 1.15-0.0854 2.31-0.171 3.5-0.259 12.7-0.882 25.4-0.984 38.1-0.991zm-76.4 325c-2 2.75-3.23 5.76-4.45 8.9-0.289 0.724-0.578 1.45-0.876 2.19-4.02 10.2-7.69 20.6-11.4 30.9-2.08 5.8-4.18 11.6-6.27 17.4-0.713 1.98-1.43 3.95-2.14 5.93-4.35 12-8.76 24.1-13.2 36.1-6.33 17.2-12.6 34.4-18.9 51.6-6.55 18-13.1 36-19.7 54.1-0.39 1.07-0.779 2.13-1.18 3.23-5.46 14.9-10.9 29.9-16.4 44.8-0.379 1.03-0.759 2.06-1.15 3.12-0.378 1.03-0.756 2.06-1.15 3.11-4.68 12.7-9.33 25.4-13.9 38.2-5.21 14.5-10.5 28.9-15.8 43.4-0.402 1.1-0.804 2.2-1.22 3.33-6.35 17.4-12.7 34.7-19.1 52.1-5.39 14.7-10.7 29.3-16 44-6.16 17.1-12.4 34.2-18.7 51.2-1.6 4.34-3.19 8.68-4.79 13-1.16 3.16-2.33 6.32-3.49 9.47-0.741 2.01-1.48 4.03-2.22 6.04-0.323 0.873-0.645 1.75-0.978 2.65-0.667 1.81-1.32 3.64-1.96 5.46-0.941 2.54-1.93 4.97-3.03 7.44-6.14 14.6-6.21 28.6-6.01 44.2 0.0411 3.73 0.0404 7.46 0.0447 11.2 0.0125 6.44 0.0493 12.9 0.102 19.3 0.0753 9.33 0.1 18.7 0.112 28 0.0191 15.2 0.0612 30.3 0.126 45.5 0.00385 0.905 0.00771 1.81 0.0117 2.74 0.0436 10.1 0.0933 20.2 0.15 30.3 0.0206 3.67 0.0412 7.33 0.0617 11 0.00507 0.905 0.0101 1.81 0.0154 2.74 0.0836 15.1 0.124 30.2 0.131 45.4 0.0062 9.3 0.0487 18.6 0.139 27.9 0.0593 6.38 0.0786 12.8 0.0672 19.1-0.0052 3.67 0.00697 7.34 0.0687 11 0.284 17.7-1.1 29.7-12.3 43.7-1.24 1.79-2.48 3.58-3.7 5.38-0.543 0.756-1.09 1.51-1.65 2.29-3.3 4.66-6.36 9.48-9.47 14.3-6.05 9.29-12.2 18.5-18.3 27.8-6.16 9.22-12.3 18.5-18.3 27.8-3.3 5.07-6.62 10.1-9.99 15.2-0.733 1.1-1.47 2.19-2.22 3.32-1.42 2.11-2.84 4.23-4.26 6.34-0.957 1.43-0.957 1.43-1.93 2.88-0.564 0.838-1.13 1.68-1.71 2.54-1.31 2.05-2.39 4.11-3.46 6.29 14.1 0.809 28.2 1.22 42.4 1.37 2.16 0.0259 4.32 0.0519 6.48 0.078 19.5 0.225 39.1 0.323 58.6 0.382 13.1 0.0421 26.2 0.126 39.3 0.311 11.5 0.162 23 0.247 34.4 0.238 6.06-0.00203 12.1 0.0336 18.2 0.162 23.3 1.73 23.3 1.73 45-4.72 4.78-5.09 7.19-10.6 9-17.3 1.01-3.44 2.59-5.9 4.62-8.85 3.82-6.15 7.53-12.4 11.2-18.6 6.62-11 13.3-22.1 20-33.1 3.44-5.65 6.88-11.3 10.3-16.9 0.357-0.588 0.714-1.18 1.08-1.78 5.78-9.51 11.5-19.1 17.2-28.6 3.64-6.08 7.3-12.1 11-18.2 0.647-1.06 0.647-1.06 1.31-2.14 2.34-3.81 4.68-7.62 7.03-11.4 0.508-0.826 1.02-1.65 1.54-2.5 0.976-1.59 1.95-3.17 2.94-4.75 0.436-0.709 0.872-1.42 1.32-2.15 0.386-0.624 0.771-1.25 1.17-1.89 1.8-3.25 2.07-5.93 2.08-9.56 0.00384-1.01 0.00768-2.01 0.0116-3.05-0.0013-1.66-0.0013-1.66-0.00263-3.36 0.00297-1.18 0.00594-2.35 9e-3 -3.56 0.00719-3.27 0.00986-6.54 0.0106-9.81 0.00185-3.52 0.0094-7.05 0.0161-10.6 0.0136-7.71 0.0196-15.4 0.024-23.1 0.00276-4.82 7e-3 -9.64 0.0115-14.5 0.0122-13.4 0.0225-26.7 0.0259-40.1 2.2e-4 -0.855 4.39e-4 -1.71 6.65e-4 -2.59 2.18e-4 -0.857 4.37e-4 -1.71 6.61e-4 -2.6 4.43e-4 -1.74 8.9e-4 -3.47 0.00134-5.21 2.21e-4 -0.861 4.43e-4 -1.72 6.71e-4 -2.61 0.00394-13.9 0.0214-27.9 0.0447-41.8 0.0238-14.3 0.0362-28.6 0.0373-42.9 9.14e-4 -8.03 0.0066-16.1 0.0248-24.1 0.0155-6.85 0.0205-13.7 0.0123-20.5-0.00388-3.49-0.0031-6.97 0.0111-10.5 0.358-31.6 0.358-31.6-13.4-59.3-7.04-6.92-15.2-9.91-25-10-12.3 0.606-21.7 6-30.1 14.8-10 11.9-10.6 29.2-12.6 44.1-0.254 1.85-0.508 3.71-0.763 5.56-0.543 3.96-1.08 7.91-1.62 11.9-0.853 6.29-1.71 12.6-2.58 18.9-0.893 6.51-1.79 13-2.67 19.5-2.81 20.5-5.66 41-8.53 61.6-0.497 3.55-0.993 7.11-1.49 10.7-2.34 16.7-4.68 33.5-7.05 50.2-0.328 2.32-0.656 4.64-0.984 6.96-0.211 1.49-0.422 2.99-0.633 4.48-0.102 0.723-0.205 1.45-0.31 2.19-0.593 4.19-1.19 8.38-1.79 12.6-0.443 3.11-0.883 6.22-1.32 9.34-0.159 1.11-0.317 2.21-0.481 3.35-0.142 1.01-0.284 2.01-0.43 3.05-0.124 0.869-0.247 1.74-0.375 2.63-0.335 2.6-0.335 2.6-0.261 6.33-1.14-0.303-2.27-0.607-3.45-0.919-4.45-1.11-8.89-1.78-13.4-2.37-1.08-0.144-1.08-0.144-2.18-0.292-2.65-0.353-5.3-0.698-7.95-1.04-3.21-0.423-6.42-0.847-9.63-1.27-1.6-0.21-3.19-0.421-4.79-0.631-1.77-0.234-1.77-0.234-3.58-0.473 0.178-1.27 0.355-2.53 0.538-3.84 3.94-28.1 7.87-56.2 11.8-84.3 0.867-6.26 1.74-12.5 2.61-18.8 3.02-21.8 6.04-43.6 9.01-65.4 1.11-8.12 2.22-16.2 3.34-24.4 0.907-6.62 1.81-13.2 2.7-19.9 0.559-4.12 1.12-8.24 1.69-12.4 0.259-1.89 0.516-3.78 0.769-5.67 4.25-31.7 4.25-31.7 10.3-42.8 0.34-0.649 0.68-1.3 1.03-1.97 3.66-6.81 7.89-13.4 13.5-18.8 2-1.64 2-1.64 1.77-3.83 0.601-0.276 1.2-0.552 1.82-0.836 2.45-1.19 2.45-1.19 5.05-3.79 5.86-5.17 13.8-9.88 21.2-12.4 3.15-2.08 3.39-2.37 4.24-5.79 0.296-1.63 0.562-3.26 0.806-4.89 0.154-0.887 0.308-1.77 0.467-2.69 0.326-1.89 0.64-3.79 0.943-5.68 0.446-2.78 0.925-5.55 1.42-8.32 1.03-5.84 2.01-11.7 2.99-17.5 0.373-2.21 0.747-4.42 1.12-6.63 0.795-4.7 1.59-9.41 2.38-14.1 1.9-11.3 3.81-22.6 5.73-33.9 0.436-2.58 0.873-5.16 1.31-7.74 4.26-25.2 8.58-50.4 12.9-75.6 1.57-9.12 3.14-18.2 4.71-27.4 0.166-0.968 0.333-1.94 0.504-2.93 3.63-21.1 7.19-42.2 10.8-63.3 2.81-16.7 5.64-33.3 8.57-50 1.9-10.8 3.79-21.6 5.61-32.4 0.313-1.86 0.63-3.72 0.946-5.58 4.33-25.9 6.3-55.2-8.99-78-2.52-3.41-4.93-6.15-8.5-8.5-0.846-0.557-1.69-1.11-2.56-1.69-11.5-6.19-23.3-2.56-31.2 6.97zm77.8 196c-3.02 16.1-5.92 32.1-8.62 48.2-1.05 6.26-2.11 12.5-3.16 18.8-0.118 0.701-0.237 1.4-0.359 2.12-3.76 22.2-7.58 44.5-11.4 66.7-0.58 3.38-1.16 6.77-1.74 10.2-0.935 5.46-1.87 10.9-2.81 16.4-0.367 2.14-0.734 4.28-1.1 6.42-2.02 11.8-4.07 23.6-6.15 35.4-0.56 3.17-1.12 6.35-1.68 9.52-0.526 2.97-1.06 5.94-1.59 8.92-0.319 1.8-0.637 3.61-0.955 5.41-0.147 0.806-0.294 1.61-0.445 2.44-0.798 4.57-1.13 8.85-0.993 13.5 0.536 0.196 1.07 0.392 1.62 0.594 15 5.73 28.2 12.7 39.4 24.4 3.23-1.4 5.1-3.02 7.44-5.62 8.54-8.71 19.2-13.4 30.6-17.4 1.67-0.658 3.34-1.32 5-2-0.583-6.55-1.41-13-2.53-19.5-0.228-1.35-0.228-1.35-0.46-2.72-0.503-2.97-1.01-5.93-1.52-8.9-0.362-2.13-0.723-4.25-1.08-6.38-0.972-5.72-1.95-11.4-2.93-17.1-0.814-4.77-1.63-9.53-2.44-14.3-4.1-24.1-8.22-48.1-12.4-72.1-0.169-0.979-0.338-1.96-0.512-2.97-1.59-9.2-3.18-18.4-4.78-27.6-0.72-4.15-1.44-8.29-2.16-12.4-0.204-1.18-0.204-1.18-0.413-2.38-2.42-14-4.71-28-6.94-42-0.119-0.746-0.239-1.49-0.361-2.26-0.321-2.01-0.64-4.02-0.959-6.02-0.424-2.46-0.899-4.83-1.56-7.23h-2z" fill="#000002"/>
<path transform="translate(149 724)" d="m0 0c20.2 16 33.6 37.7 37.4 63.3 2.37 25-3.26 50.2-19.1 70.1-14.1 16.8-31.4 27.8-52.6 33.2-0.883 0.245-1.77 0.49-2.68 0.742-18.7 4.35-41.2 1.83-58.3-6.74-1.05-0.519-2.1-1.04-3.18-1.57-22.4-11.9-39.1-31.5-46.7-55.7-7.63-25.5-4.74-49.7 7.41-73.3 11.8-21.6 32.2-37.1 55.4-44.6 28.9-7.43 58.1-2.92 82.4 14.5zm-85.3 38.7c-0.742 0.514-1.48 1.03-2.25 1.56-0.578 0.476-1.16 0.951-1.75 1.44v2h-2c-8.51 10.6-13.1 24-11.7 37.6 1.68 9.68 5.35 17.9 11.7 25.4 0.717 0.893 0.717 0.893 1.45 1.8 7.33 8.3 19.6 13.6 30.5 14.4 13.9 0.425 27-3.87 37.4-13.4 8.93-10 14.2-22.7 13.9-36.2-1.28-13.7-6.93-25.6-17.2-34.7-18.8-13.5-41.3-14.1-60 0z" fill="#000002"/>
<path transform="translate(253 378)" d="m0 0c18.2 17.3 28.3 41.7 29.3 66.7 0.374 25.7-9.82 49.8-27.5 68.3-17.9 17.8-42.5 26.6-67.5 26.9-25.3-0.13-48-10.6-66-28.1-19.1-19.6-26.7-44-26.4-70.8 0.673-23.6 12.4-45.7 28.4-62.6 37.1-34.8 92.3-32.6 130-0.316zm-96.8 33.6c-0.624 0.596-1.25 1.19-1.89 1.8-9.5 9.96-13.7 22.2-13.4 35.8 0.898 9.88 4.71 18.4 10.3 26.4 0.722 1.05 1.44 2.1 2.19 3.19 9.19 9.19 21.5 14.6 34.4 15.1 13-0.214 24.7-4.64 34.2-13.5 10.5-11.5 14-23.1 13.5-38.3-0.707-11.8-6.39-23-14.9-31.2-18.8-15.3-46.5-16.4-64.4 0.75z" fill="#000002"/>
<path transform="translate(1409 353)" d="m0 0c25.1-0.792 48.5 9.12 66.9 25.8 18.7 18.1 28.7 41.9 29.4 67.9-0.0847 25.7-10.9 49.5-28.7 67.9-19 18-43.9 26.2-69.7 25.8-18.4-0.572-34.9-6.98-50-17.2-1.08-0.715-1.08-0.715-2.18-1.45-19.1-13-31.3-36.3-35.7-58.6-4.33-24.7 1.59-49.6 15.6-70.3 3.63-5.01 7.87-9.41 12.3-13.7 0.74-0.739 1.48-1.48 2.24-2.24 16.3-15.4 37.8-22.6 59.8-23.9zm-33.2 62.3c-7.75 9.34-12.5 21.4-12.1 33.6 1.48 13.1 6.66 24.9 16.3 33.9 10.8 8.42 23.2 12.4 36.9 11.3 13.5-2.11 24.5-8.24 33-19 7.57-12.1 10.5-23.8 8-38-3.39-13.4-10.2-23.6-22-31-20.8-11-43.6-7.85-60.1 9.2z" fill="#000002"/>
<path transform="translate(509,118)" d="m0 0c17.3 15.5 29.3 38.1 31.2 61.5 0.0955 2.54 0.122 5.07 0.105 7.61-0.00564 0.911-0.0113 1.82-0.0171 2.76-0.389 22-8.2 42.2-22.3 59.1-0.521 0.666-1.04 1.33-1.58 2.02-4.96 6.1-11 10.5-17.4 15-1.15 0.82-1.15 0.82-2.33 1.66-5.37 3.53-11.1 5.84-17.1 8.09-0.775 0.294-1.55 0.588-2.35 0.891-10.1 3.63-19.9 4.73-30.5 4.67-1.65-0.00846-1.65-0.00846-3.33-0.0171-8.18-0.122-15.5-0.797-23.4-3.3-0.642-0.204-1.28-0.408-1.95-0.618-24.6-8.01-43.1-24.7-55.2-47.4-11.2-22.1-12.7-47.3-5.08-70.8 8.04-23.5 22.6-40.9 44.2-53.1 0.98-0.558 1.96-1.12 2.97-1.69 33.8-18.1 75.5-10.2 104 13.7zm-99 40c-8.77 12.1-11.2 24.3-10 39 1.59 8.05 5.07 14.5 10 21 0.722 1.03 1.44 2.06 2.19 3.12 7.37 8.45 19.1 13.5 30.2 14.3 13.9 0.554 24.7-2.45 35.7-11.4 0.637-0.5 1.27-1 1.93-1.52 8.98-7.9 13.3-20.3 14.3-31.9 0.515-12.5-3.9-24.5-11.6-34.2-8.5-9.05-20.7-14.7-33-15.6-16.1-0.452-28.6 5.51-39.6 17.3z" fill="#000002"/>
<path transform="translate(1468 1078)" d="m0 0c20.1 15.5 33.2 38.3 36.6 63.5 2.38 25.9-4.58 51.3-21.2 71.5-13.6 16-30.3 25.5-50.5 31-0.824 0.228-1.65 0.456-2.5 0.691-23.6 5.41-49.4-0.264-69.8-12.8-21-14.2-34.9-34.1-40.7-58.8-0.226-0.888-0.451-1.78-0.684-2.69-5.14-23.2 1.07-47 12.7-67.3 2.15-3.18 4.5-6.09 7-9 0.984-1.2 0.984-1.2 1.99-2.43 5.93-6.97 12.6-12.3 20-17.6 1.2-0.866 1.2-0.866 2.42-1.75 31.4-20.8 75.4-15.7 105 5.84zm-91.1 42.9c-0.721 0.733-0.721 0.733-1.46 1.48-7.94 8.46-10.9 19.1-11.9 30.4 0.406 11.9 5.4 24.8 13.6 33.5 12.2 11 24.6 14.3 40.8 13.6 10.9-1.04 21.7-6.96 29-15 8-10.1 13.4-22.9 12-36-2.2-14.2-8.1-26.1-19.8-34.7-19.8-13.3-46-11.3-62.2 6.69z" fill="#000002"/>
<path transform="translate(856 18.4)" d="m0 0c1.44 1.18 2.88 2.37 4.31 3.56 0.965 0.746 0.965 0.746 1.95 1.51 15 12.1 24.4 30 29.1 48.5 0.175 0.646 0.35 1.29 0.531 1.96 5.87 23.3 0.337 47.9-11.4 68.4-14.4 22.5-35.4 37.3-61.4 43.2-24.4 4.75-49.7-0.0837-70.5-13.7-22-15.4-34.8-36.3-40.7-62.2-4.09-23.5 0.997-46.8 13.5-66.8 1.91-2.71 3.9-5.29 6.02-7.84 0.699-0.849 1.4-1.7 2.12-2.57 31.6-36.7 87.7-43.7 127-14zm-90.7 42.6c-10 12.3-12.9 24.4-12 40 1.2 7.99 4.42 14.4 9 21 0.441 0.638 0.882 1.28 1.34 1.93 7.09 9.2 19.3 15.2 30.7 17.1 14 1.15 26.7-3.06 37.8-11.8 9.08-8.38 14.5-19.8 15.5-32.1 0.347-14.6-4.42-27-14.2-37.8-8.23-7.81-18.7-12.3-30-13.3-1.11-0.103-2.23-0.206-3.38-0.312-13 1.12-25.6 5.55-34.6 15.3z" fill="#000002"/>
<path transform="translate(1553,719)" d="m0 0c1.01 0.568 2.02 1.14 3.06 1.72 22.8 13.7 35.2 35.3 41.9 60.3 0.246 0.844 0.492 1.69 0.746 2.56 5.37 21.4-0.917 45.2-11.7 63.9-1.92 2.94-3.92 5.77-6.02 8.58-0.588 0.821-1.18 1.64-1.78 2.49-3.87 5.24-8.12 9.48-13.2 13.5-0.801 0.648-1.6 1.3-2.43 1.96-10.9 8.42-23.3 13.6-36.6 17-1.25 0.338-1.25 0.338-2.52 0.684-23.9 5.45-48.6-0.598-69.2-12.9-21-14.1-36.1-35.9-41.2-60.8-4.5-25.5 1.11-51.3 15.8-72.6 1.97-2.56 4.03-4.98 6.2-7.38 0.429-0.478 0.858-0.956 1.3-1.45 10.9-12 23.4-20 38.7-25.6 1.14-0.414 2.28-0.828 3.45-1.25 25-7.62 51.3-3.44 73.5 9.25zm-80 47c-0.572 0.544-1.14 1.09-1.73 1.65-9.36 9.89-12.8 22.5-12.6 35.7 1.05 12.4 6.52 23.4 15.5 32 11.4 9.44 24.2 13 38.8 11.7 13.9-2.72 24.5-9.76 33-21 1.67-2.58 2.91-5.13 4-8 0.296-0.712 0.593-1.42 0.898-2.16 4.3-11.8 3.21-25.5-1.9-36.8-3.27-5.65-7.12-10.6-12-15-1.08-0.99-1.08-0.99-2.19-2-19.4-13.8-44.5-12.6-61.8 4z" fill="#000002"/>
<path transform="translate(1211 114)" d="m0 0c18.9 15.6 32.2 36.9 35.3 61.7 1.61 29.2-4.42 54-24.2 76.2-15.1 16.2-34.9 25.8-56.8 28.8-1.46 0.203-1.46 0.203-2.94 0.41-23.3 2.54-47.5-4.17-65.8-18.8-0.758-0.647-1.52-1.29-2.3-1.96-2.05-1.82-2.05-1.82-4.95-3.66v-2c-0.552-0.204-1.1-0.407-1.67-0.617-3.23-1.92-5.3-4.59-7.58-7.51-0.481-0.616-0.962-1.23-1.46-1.87-16-21.2-20.8-46.5-18-72.6 3.48-23.1 17.7-44.5 35.8-58.9 34.7-25.2 80.2-24.8 115 0.746zm-93 41.9c-9.53 11.5-12.8 24.1-11.7 38.8 2.5 14 9.44 24.3 20.8 32.9 11.8 7.65 25 9.06 38.7 6.46 12-3.56 23.1-12.1 29.4-22.9 6.13-13.1 7.19-26.7 2.45-40.3-5.95-14-15.5-22.3-29.3-28.1-17.4-6.9-37.9 0.166-50.3 13.2z" fill="#000002"/>
<path transform="translate(244 1078)" d="m0 0c0.849 0.633 1.7 1.27 2.57 1.92 0.99 0.66 1.98 1.32 3 2v2c0.584 0.253 1.17 0.505 1.77 0.766 13.3 7.35 22.2 28.4 26.4 42 6.87 25.4 3.82 50.4-8.88 73.4-11.1 18.7-11.1 18.7-19.3 21.8v2c-21.1 17.2-46.2 23.8-73 22-10.5-1.29-20.5-4.34-30-9-1.38-0.661-1.38-0.661-2.79-1.34-7.19-3.66-13.2-8.31-19.2-13.7l-2.34-2.05c-15.5-14.5-26.6-37-27.8-58.2-0.879-28.2 6.85-52.2 25.7-73.6 32.6-34.4 86.2-37.5 124-10zm-93.9 45.5c-8.09 10.2-10.5 23.8-9.5 36.4 2.53 13.1 9.05 24.3 20 32 12.4 7.36 24.1 9.86 38.6 7.44 12-3.24 22.8-10.9 29.3-21.5 6.56-12.6 8.76-26.7 4.5-40.5-2.08-5.33-4.94-9.88-8.38-14.4-0.866-1.3-0.866-1.3-1.75-2.62-6.5-6.86-14.3-10.7-23.2-13.4-0.608-0.193-1.22-0.387-1.84-0.586-18.8-3.6-34.9 3.53-47.7 17.2z" fill="#000002"/>
<path transform="translate(946 368)" d="m0 0c0.878-0.00315 1.76-0.0063 2.66-0.00955 0.954 0.00202 1.91 0.00405 2.89 0.00613 0.973-9.57e-4 1.95-0.00191 2.95-0.0029 2.06-6.82e-4 4.12 0.00117 6.18 0.00534 3.17 0.00535 6.33 5.54e-5 9.5-0.00635 2 6.61e-4 3.99 0.00194 5.99 0.00391 0.954-0.00202 1.91-0.00405 2.89-0.00613 1.32 0.00473 1.32 0.00473 2.66 0.00955 0.776 7.96e-4 1.55 0.00159 2.35 0.00241 1.78 0.127 1.78 0.127 2.78 1.13 0.0929 1.41 0.117 2.83 0.114 4.24-7.55e-5 0.901-1.51e-4 1.8-2.29e-4 2.73-0.00516 0.979-0.0103 1.96-0.0156 2.97-0.00141 0.997-0.00283 1.99-0.00429 3.02-0.00562 3.2-0.0182 6.4-0.0309 9.6-0.00501 2.16-0.00958 4.33-0.0137 6.49-0.0111 5.32-0.0278 10.6-0.0488 15.9-6.39 0.168-12.8 0.328-19.2 0.482-2.18 0.0535-4.35 0.109-6.53 0.166-3.12 0.0817-6.24 0.157-9.36 0.231-0.979 0.027-1.96 0.0541-2.97 0.0819-0.901 0.0201-1.8 0.0402-2.73 0.0609-1.2 0.03-1.2 0.03-2.42 0.0606-1.83-0.0823-1.83-0.0823-2.83-1.08-0.098-1.41-0.128-2.82-0.129-4.23-0.00315-0.898-0.0063-1.8-0.00955-2.72 0.00202-0.976 0.00405-1.95 0.00613-2.96-9.57e-4 -0.995-0.00191-1.99-0.0029-3.02-6.82e-4 -2.11 0.00117-4.22 0.00534-6.33 0.00535-3.24 5.54e-5 -6.48-0.00635-9.72 6.61e-4 -2.04 0.00194-4.09 0.00391-6.13-0.00202-0.976-0.00405-1.95-0.00613-2.96 0.00315-0.898 0.0063-1.8 0.00955-2.72 7.96e-4 -0.794 0.00159-1.59 0.00241-2.41 0.246-3.53 2.21-2.95 5.26-2.95z" fill="#000002"/>
<path transform="translate(1035,415)" d="m0 0c11.1-0.0309 11.1-0.0309 22.4-0.0625 2.34-0.0091 4.68-0.0182 7.09-0.0276 1.84-0.00292 3.69-0.00547 5.53-0.00757 1.45-0.00767 1.45-0.00767 2.93-0.0155 0.914-1.21e-4 1.83-2.42e-4 2.77-3.66e-4 1.2-0.00333 1.2-0.00333 2.42-0.00673 1.83 0.12 1.83 0.12 2.83 1.12 0.0929 1.41 0.117 2.83 0.114 4.24-1.21e-4 0.914-2.42e-4 1.83-3.66e-4 2.77-0.00512 0.967-0.0102 1.93-0.0155 2.93-0.00101 0.884-0.00201 1.77-0.00305 2.68-0.00525 3.31-0.0192 6.63-0.0321 9.94-0.0206 7.4-0.0412 14.8-0.0625 22.4h-46v-46z" fill="#000002"/>
</svg>
