<?xml version="1.0" standalone="no"?>
<!DOCTYPE svg PUBLIC "-//W3C//DTD SVG 20010904//EN"
 "http://www.w3.org/TR/2001/REC-SVG-20010904/DTD/svg10.dtd">
<svg version="1.0" xmlns="http://www.w3.org/2000/svg"
 width="1250.000000pt" height="1280.000000pt" viewBox="0 0 1250.000000 1280.000000"
 preserveAspectRatio="xMidYMid meet">
<metadata>
Created by potrace 1.15, written by Peter Selinger 2001-2017
</metadata>
<g transform="translate(0.000000,1280.000000) scale(0.100000,-0.100000)"
fill="#000000" stroke="none">
<path d="M7156 12205 c-311 -327 -566 -596 -566 -599 0 -5 1179 -1090 1189
-1093 6 -3 1143 1152 1149 1167 2 4 -248 239 -555 521 -307 283 -579 533 -604
556 l-46 43 -567 -595z"/>
<path d="M5394 12090 c3 -25 8 -90 11 -145 27 -461 135 -965 292 -1365 64
-163 188 -404 281 -545 245 -375 582 -679 962 -870 398 -200 832 -296 1340
-297 569 -2 1115 112 1689 349 495 205 924 480 1260 809 l135 131 -80 99 c-99
123 -315 400 -644 829 -139 182 -264 342 -276 357 l-23 28 -128 -113 c-606
-532 -1199 -898 -1744 -1077 -280 -92 -505 -130 -772 -130 -251 0 -429 29
-647 105 -427 149 -813 456 -1142 906 -174 238 -353 563 -458 830 -29 74 -55
136 -57 139 -3 3 -2 -15 1 -40z"/>
<path d="M3765 10174 c-282 -28 -456 -57 -688 -115 -563 -141 -1169 -415
-1787 -806 -94 -59 -170 -111 -170 -115 0 -5 822 -1495 877 -1590 6 -11 165
71 292 149 58 36 212 139 342 229 294 204 417 279 594 365 162 78 302 127 465
160 105 22 140 24 390 24 280 0 359 -7 554 -46 413 -83 692 -280 777 -549 30
-93 36 -244 14 -351 -74 -366 -383 -707 -735 -813 -226 -67 -544 -106 -864
-106 -242 1 -435 17 -779 66 -151 22 -262 33 -267 28 -5 -5 125 -426 313
-1014 178 -553 326 -1013 329 -1022 6 -15 23 -11 147 32 161 57 418 122 571
145 167 26 413 30 553 11 422 -60 732 -268 903 -609 91 -180 133 -351 141
-577 25 -680 -373 -1352 -972 -1640 -216 -104 -517 -178 -915 -226 -198 -24
-596 -24 -770 0 -356 48 -625 128 -910 270 -478 238 -875 606 -1214 1123 -434
663 -746 1586 -895 2647 -11 76 -22 140 -24 142 -2 3 -7 -35 -10 -83 -52 -728
-24 -1451 78 -2049 276 -1609 1089 -2787 2359 -3415 452 -224 908 -358 1426
-421 142 -17 549 -17 668 0 187 27 524 139 760 252 887 427 1438 1143 1562
2035 45 323 26 749 -50 1126 -77 381 -230 838 -421 1253 -38 82 -67 151 -66
153 2 1 62 -6 133 -16 411 -61 855 -50 1162 28 538 138 905 435 1164 941 35
69 79 168 97 220 126 358 191 502 298 665 126 192 284 356 493 514 459 347
865 443 1199 285 390 -183 674 -711 780 -1449 46 -316 52 -738 16 -1039 -95
-801 -539 -1397 -1334 -1794 -410 -205 -769 -292 -1146 -279 -399 14 -718 154
-978 426 -209 220 -365 529 -462 915 -25 102 -45 162 -48 150 -10 -33 -46
-245 -61 -364 -130 -984 101 -1836 644 -2380 653 -653 1667 -781 2546 -321
825 433 1393 1307 1584 2441 79 473 85 846 24 1455 -92 922 -330 1687 -695
2235 -129 192 -208 290 -359 440 -333 333 -742 552 -1204 645 -176 35 -309 47
-506 47 -401 -1 -773 -83 -1082 -238 -124 -62 -174 -100 -326 -243 -248 -234
-427 -447 -627 -746 -141 -213 -234 -375 -443 -780 -189 -367 -271 -514 -353
-637 -219 -325 -456 -496 -766 -552 -197 -36 -127 -54 -720 184 -291 117 -529
213 -531 215 -2 1 50 37 114 80 314 206 604 464 809 717 239 296 421 657 504
999 49 204 56 266 55 514 0 245 -9 320 -60 515 -175 669 -683 1189 -1384 1419
-281 92 -475 122 -820 126 -140 2 -273 1 -295 -1z"/>
</g>
</svg>
