<?xml version="1.0" standalone="no"?>
<!DOCTYPE svg PUBLIC "-//W3C//DTD SVG 20010904//EN"
 "http://www.w3.org/TR/2001/REC-SVG-20010904/DTD/svg10.dtd">
<svg version="1.0" xmlns="http://www.w3.org/2000/svg"
 width="1280.000000pt" height="1196.000000pt" viewBox="0 0 1280.000000 1196.000000"
 preserveAspectRatio="xMidYMid meet">
<metadata>
Created by potrace 1.15, written by Peter Selinger 2001-2017
</metadata>
<g transform="translate(0.000000,1196.000000) scale(0.100000,-0.100000)"
fill="#ffffff" stroke="none">
<path d="M6897 11903 c64 -43 112 -88 102 -98 -2 -1 -38 6 -79 17 -82 21 -184
20 -273 -2 l-48 -13 56 -23 c142 -57 228 -150 294 -318 17 -41 58 -176 91
-301 77 -287 102 -364 157 -495 163 -382 382 -603 635 -642 295 -44 584 208
654 570 19 100 18 322 -2 420 -82 398 -416 667 -1029 827 -127 33 -433 87
-565 100 l-65 6 72 -48z"/>
<path d="M9885 10373 c-278 -34 -468 -159 -620 -407 -165 -270 -397 -523 -633
-693 -108 -78 -316 -182 -442 -221 -190 -60 -245 -67 -495 -67 -213 0 -240 2
-365 28 -416 86 -852 300 -1270 623 -111 86 -400 362 -454 434 l-26 35 25 -80
c102 -335 272 -696 455 -970 438 -653 1055 -1044 1779 -1126 150 -17 484 -7
636 20 735 126 1374 548 1802 1190 194 290 393 766 393 938 0 35 -6 78 -14 96
-31 76 -124 135 -253 162 -155 32 -413 51 -518 38z"/>
<path d="M4365 9094 c-241 -56 -546 -175 -835 -326 -85 -45 -308 -167 -495
-271 -816 -457 -1191 -613 -1654 -687 l-73 -12 56 -23 c91 -37 162 -85 252
-169 157 -146 314 -364 584 -811 164 -270 239 -382 309 -458 63 -68 96 -87
147 -87 33 0 45 7 87 52 97 103 285 347 597 773 464 634 719 910 1003 1088
101 64 207 110 314 138 105 26 172 25 232 -5 100 -51 204 -203 252 -368 26
-91 37 -308 20 -418 -55 -355 -283 -699 -668 -1003 -112 -89 -319 -219 -415
-261 -132 -58 -206 -105 -276 -173 -96 -95 -114 -140 -180 -473 -24 -125 -24
-467 1 -570 70 -288 338 -668 582 -824 84 -54 150 -77 220 -77 111 0 175 48
252 189 181 331 559 695 898 865 448 224 753 81 864 -405 48 -211 60 -483 27
-633 -97 -447 -400 -940 -856 -1395 -421 -422 -908 -714 -1340 -807 -63 -13
-128 -18 -255 -18 -204 1 -284 18 -440 95 -350 171 -570 518 -720 1132 -78
321 -192 587 -385 898 -160 256 -341 483 -618 770 -319 332 -584 570 -1022
916 -214 169 -738 562 -798 598 -19 11 129 -188 442 -597 651 -849 837 -1110
1061 -1482 88 -147 255 -467 310 -595 38 -88 115 -288 115 -299 0 -3 -27 43
-61 103 -209 377 -433 704 -566 827 -48 45 -110 85 -119 76 -2 -2 57 -84 133
-183 404 -528 522 -806 613 -1447 22 -157 62 -331 120 -529 321 -1098 1023
-1910 1844 -2133 325 -88 623 -92 986 -14 924 200 1650 754 2161 1648 286 501
504 1145 609 1796 71 437 79 941 24 1368 -9 65 -13 121 -11 124 10 10 93 -56
154 -121 118 -125 171 -276 218 -608 41 -293 58 -364 123 -493 165 -330 468
-663 707 -776 139 -65 247 -71 358 -19 54 25 152 125 192 195 16 28 30 51 31
53 1 2 14 -4 29 -14 49 -32 133 -44 321 -44 242 0 551 30 973 96 90 14 165 23
167 21 7 -6 -235 -138 -353 -193 -140 -66 -282 -122 -403 -160 -125 -39 -99
-44 81 -13 918 153 1709 787 2164 1732 229 476 338 933 338 1417 1 883 -414
1531 -1147 1789 -241 85 -481 123 -786 123 -223 1 -341 -9 -520 -43 -933 -177
-1639 -857 -1925 -1854 -93 -322 -140 -621 -152 -962 -3 -101 -8 -183 -11
-183 -2 0 -24 18 -49 40 -101 88 -228 156 -429 229 -60 21 -117 42 -126 46 -9
4 -21 28 -29 58 -38 161 -113 350 -196 497 -164 289 -392 465 -683 526 -135
29 -359 25 -525 -10 -119 -25 -335 -92 -462 -144 l-52 -21 36 77 c338 722 466
1316 388 1807 -107 674 -625 1047 -1485 1071 -151 4 -174 2 -275 -22z m6397
-2578 c230 -45 430 -170 566 -354 308 -417 200 -922 -311 -1460 -190 -200
-347 -342 -822 -742 -294 -248 -380 -324 -543 -484 -74 -72 -131 -122 -128
-111 29 101 38 170 43 315 8 245 -9 330 -140 703 -153 432 -169 597 -85 857
222 685 607 1151 1037 1260 42 10 87 21 101 23 59 10 214 6 282 -7z"/>
</g>
</svg>
